<?xml version="1.0" encoding="utf-8"?>
<!-- Generator: Adobe Illustrator 24.2.1, SVG Export Plug-In . SVG Version: 6.00 Build 0)  -->
<svg version="1.1" id="Layer_1" xmlns="http://www.w3.org/2000/svg" xmlns:xlink="http://www.w3.org/1999/xlink" x="0px" y="0px"
	 viewBox="0 0 504.8 532" style="enable-background:new 0 0 504.8 532;" xml:space="preserve">
<style type="text/css">
	.st0{fill:#7289DA;}
	.st1{fill:#4E5D94;}
	.st2{fill:#23272A;}
</style>
<path class="st0" d="M347,456.1H146.6c-30.7,0-55.6-24.9-55.6-55.6V205.8h256V456.1z"/>
<path class="st1" d="M319.5,445.8H155c-29.3,0-53-23.7-53-53v-159c0-15.5,12.5-28,28-28h189.4c15.5,0,28,12.5,28,28v183.9
	C347.5,433.2,335,445.8,319.5,445.8z"/>
<g>
	<path class="st1" d="M356.7,13.5h-27.1L316,37l13.5,23.5h27.1L370.2,37L356.7,13.5z M343.1,46.8c-5.4,0-9.8-4.4-9.8-9.8
		c0-5.4,4.4-9.8,9.8-9.8c5.4,0,9.8,4.4,9.8,9.8C352.9,42.4,348.5,46.8,343.1,46.8z"/>
	<polygon class="st1" points="326.3,153 333.9,67 351.4,67 358.9,153 	"/>
</g>
<path class="st0" d="M410.9,190.7v195.8c0,38.3-31.3,69.6-69.6,69.6l0,0C203.1,456.1,91,344,91,205.8v-15.1
	c0-38.4,31.2-69.6,69.6-69.6c10.7,0.4,77.6-0.9,132.8-0.1c37.9,0.5,70.3,2,75.1,5.6C393.4,137.2,410.9,161.9,410.9,190.7z"/>
<path class="st2" d="M209,252.9h-43.8c-5.8,0-10.5-4.7-10.5-10.5v-43.8c0-5.8,4.7-10.5,10.5-10.5H209c5.8,0,10.5,4.7,10.5,10.5v43.8
	C219.5,248.2,214.8,252.9,209,252.9z"/>
<path class="st2" d="M336.5,252.9h-43.8c-5.8,0-10.5-4.7-10.5-10.5v-43.8c0-5.8,4.7-10.5,10.5-10.5h43.8c5.8,0,10.5,4.7,10.5,10.5
	v43.8C347,248.2,342.3,252.9,336.5,252.9z"/>
<path class="st2" d="M319.6,339.6c-13.6,15.4-37.9,25.7-65.5,25.7c-29.4,0-55-11.6-68.1-28.7c1-0.8,2.1-1.5,3.3-2.1
	c17.2,8.4,40.4,13.5,65.8,13.5c23.4,0,44.8-4.3,61.5-11.5C317.8,337.4,318.8,338.4,319.6,339.6z"/>
<path class="st1" d="M91,205.8"/>
</svg>
